<?xml version="1.0" encoding="iso-8859-1"?>
<!-- Generator: Adobe Illustrator 19.0.0, SVG Export Plug-In . SVG Version: 6.00 Build 0)  -->
<svg xmlns="http://www.w3.org/2000/svg" xmlns:xlink="http://www.w3.org/1999/xlink" version="1.1" id="Capa_1" x="0px" y="0px" viewBox="0 0 504.995 504.995" style="enable-background:new 0 0 504.995 504.995;" xml:space="preserve" width="512" height="512">
<g>
	<path style="fill:#B1DCEE;" d="M237.498,395.328v72.165h30v-72.165c-4.93,0.372-9.933,0.567-15,0.567   S242.427,395.699,237.498,395.328z"/>
	<path style="fill:#FFA317;" d="M194.836,147.953h-52.793v87.721v20.002c0,61.002,49.452,110.455,110.454,110.455   c61.002,0,110.454-49.452,110.454-110.455V147.953H214.838"/>
	<path style="fill:#5A9DEE;" d="M214.837,147.958h148.114v-30.003C362.952,56.953,313.499,7.5,252.498,7.5   c-61.002,0-110.454,49.453-110.454,110.455v30.003h52.792"/>
	<g>
		<path style="fill:#214245;" d="M370.452,179.313v-23.855v-15.005v-22.498C370.452,52.914,317.538,0,252.498,0    c-65.04,0-117.954,52.914-117.954,117.955v22.498v15.005v23.855h-30v76.363c0,73.935,54.512,135.377,125.454,146.247v58.07    h-87.954v15h87.954h45h87.954v-15h-87.954v-58.07c70.942-10.87,125.454-72.312,125.454-146.247v-76.363H370.452z M194.835,155.458    v-0.005h0.001v-15h-45.293v-22.498C149.543,61.185,195.728,15,252.498,15c56.77,0,102.954,46.185,102.954,102.955v22.498H214.838    v0.005h-0.001v15h140.614v100.218c0,56.77-46.185,102.955-102.954,102.955c-56.77,0-102.954-46.185-102.954-102.955V155.458    H194.835z M259.998,459.992h-15v-56.551c2.484,0.125,4.985,0.189,7.5,0.189c2.515,0,5.016-0.065,7.5-0.189V459.992z     M385.452,255.675c0,68.471-52.029,125.012-118.627,132.181c-9.535,0.713-19.119,0.713-28.654,0    c-66.598-7.169-118.627-63.709-118.627-132.181v-61.363h15v61.363c0,65.04,52.914,117.955,117.954,117.955    c65.04,0,117.954-52.914,117.954-117.955v-61.363h15V255.675z"/>
		<rect x="112.043" y="489.995" style="fill:#214245;" width="280.908" height="15"/>
		<path style="fill:#214245;" d="M325.452,117.955h15c0-48.499-39.456-87.955-87.954-87.955v15    C292.724,45,325.452,77.728,325.452,117.955z"/>
	</g>
</g>















</svg>
